<?xml version="1.0" encoding="utf-8"?>
<!-- Generator: Adobe Illustrator 27.5.0, SVG Export Plug-In . SVG Version: 6.00 Build 0)  -->
<svg version="1.1" xmlns="http://www.w3.org/2000/svg" xmlns:xlink="http://www.w3.org/1999/xlink" x="0px" y="0px"
	 viewBox="0 0 750 500" style="enable-background:new 0 0 750 500;" xml:space="preserve">
<g id="BACKGROUND">
	<rect style="fill:#EEF4FF;" width="750" height="500"/>
</g>
<g id="OBJECTS">
	<g>
		<defs>
			<rect id="SVGID_1_" width="750" height="500"/>
		</defs>
		<clipPath id="SVGID_00000098937150725721195700000001690820968749638017_">
			<use xlink:href="#SVGID_1_"  style="overflow:visible;"/>
		</clipPath>
		<g style="clip-path:url(#SVGID_00000098937150725721195700000001690820968749638017_);">
			<path style="fill:#FFFFFF;" d="M142.594,235.202c-0.081-1.622-0.217-3.348-0.42-5.191c-1.668-15.103-12.016-13.717-18.456-13.258
				c-6.44,0.459-14.445,0.701-17.525-6.324c-1.34-3.057-1.281-6.747-2.161-10.051c-1.952-7.324-8.465-11.714-14.688-11.728
				c-6.222-0.015-12.111,3.553-17.209,7.974c-2.648,2.297-5.633,4.987-8.788,4.121c-2.021-0.554-3.601-2.492-4.857-4.531
				c-7.376-11.973-7.329-29.382-15.405-40.642c-8.914-12.429-25.566-12.681-36.838-3.66c-11.271,9.022-17.745,25.098-20.697,41.322
				c-0.96,5.273-1.789,11.056-5.044,14.655c-4.651,5.143-11.77,3.441-17.977,2.744c-7.203-0.809-14.886,0.367-20.733,5.645
				c-4.767,4.303-7.869,11.837-7.279,18.923H142.594z"/>
			<path style="fill:#FFFFFF;" d="M144.021,98.206h170.293c0,0-6.828-7.938-14.551-10.645c-9.721-3.407-13.765,6.16-19.9-6.211
				c-3.442-6.94-5.856-16.079-14.913-18.451c-14.166-3.71-17.768,7.996-24.517,4.832c-5.925-2.778-5.741-13.89-11.721-23.181
				c-5.845-9.08-20.093-14.667-29.811-9.931c-17.756,8.653-15.451,22.417-21.266,26.955c-5.739,4.478-18.904-11.289-33.614,5.76
				C133.878,79.089,144.021,98.206,144.021,98.206z"/>
			<path style="fill:#FFFFFF;" d="M652.649,445.547H482.356c0,0,6.828-7.938,14.551-10.645c9.721-3.407,13.765,6.161,19.9-6.211
				c3.442-6.94,5.856-16.079,14.913-18.451c14.166-3.71,17.768,7.996,24.517,4.832c5.925-2.778,5.741-13.89,11.721-23.181
				c5.845-9.08,20.093-14.667,29.811-9.931c17.756,8.653,15.451,22.417,21.266,26.955c5.739,4.478,18.904-11.289,33.614,5.76
				C662.791,426.43,652.649,445.547,652.649,445.547z"/>
			<g>
				<path style="fill:none;stroke:#AFB9F6;stroke-linejoin:round;stroke-miterlimit:10;" d="M563.925,30.978
					c0,2.777-2.251,5.028-5.028,5.028c-2.776,0-5.027-2.251-5.027-5.028c0-2.776,2.251-5.027,5.027-5.027
					C561.674,25.95,563.925,28.201,563.925,30.978z"/>
				<path style="fill:none;stroke:#AFB9F6;stroke-linejoin:round;stroke-miterlimit:10;" d="M715.328,426.712
					c0,2.777-2.251,5.027-5.028,5.027c-2.777,0-5.027-2.251-5.027-5.027c0-2.777,2.251-5.028,5.027-5.028
					C713.077,421.685,715.328,423.935,715.328,426.712z"/>
				<path style="fill:none;stroke:#AFB9F6;stroke-linejoin:round;stroke-miterlimit:10;" d="M602.119,242.029
					c0,2.777-2.251,5.027-5.027,5.027c-2.776,0-5.027-2.251-5.027-5.027c0-2.777,2.251-5.028,5.027-5.028
					C599.868,237.001,602.119,239.252,602.119,242.029z"/>
				<path style="fill:none;stroke:#AFB9F6;stroke-linejoin:round;stroke-miterlimit:10;" d="M144.54,172.457
					c0,2.777-2.251,5.027-5.027,5.027c-2.777,0-5.027-2.251-5.027-5.027c0-2.777,2.251-5.028,5.027-5.028
					C142.289,167.43,144.54,169.681,144.54,172.457z"/>
				<path style="fill:none;stroke:#AFB9F6;stroke-linejoin:round;stroke-miterlimit:10;" d="M48.934,293.872
					c0,2.776-2.251,5.027-5.027,5.027c-2.777,0-5.028-2.251-5.028-5.027c0-2.777,2.251-5.028,5.028-5.028
					C46.683,288.845,48.934,291.095,48.934,293.872z"/>
				<path style="fill:none;stroke:#AFB9F6;stroke-linejoin:round;stroke-miterlimit:10;" d="M108.141,95.28
					c0,2.776-2.251,5.027-5.027,5.027c-2.777,0-5.028-2.251-5.028-5.027c0-2.777,2.251-5.028,5.028-5.028
					C105.89,90.253,108.141,92.504,108.141,95.28z"/>
				<circle style="fill:none;stroke:#AFB9F6;stroke-linejoin:round;stroke-miterlimit:10;" cx="166.832" cy="31.305" r="3.418"/>
				<path style="fill:none;stroke:#AFB9F6;stroke-linejoin:round;stroke-miterlimit:10;" d="M688.767,279.936
					c0,1.887-1.53,3.417-3.418,3.417c-1.887,0-3.417-1.53-3.417-3.417c0-1.887,1.53-3.418,3.417-3.418
					C687.237,276.518,688.767,278.048,688.767,279.936z"/>
				<path style="fill:none;stroke:#AFB9F6;stroke-linejoin:round;stroke-miterlimit:10;" d="M339.174,39.77
					c0,1.887-1.53,3.417-3.417,3.417c-1.887,0-3.418-1.53-3.418-3.417c0-1.887,1.53-3.418,3.418-3.418
					C337.644,36.352,339.174,37.883,339.174,39.77z"/>
				<path style="fill:none;stroke:#AFB9F6;stroke-linejoin:round;stroke-miterlimit:10;" d="M555.947,186.408
					c0,1.887-1.53,3.418-3.417,3.418c-1.888,0-3.418-1.53-3.418-3.418c0-1.888,1.53-3.418,3.418-3.418
					C554.417,182.99,555.947,184.52,555.947,186.408z"/>
				<path style="fill:none;stroke:#AFB9F6;stroke-linejoin:round;stroke-miterlimit:10;" d="M660.574,139.812
					c0,1.887-1.53,3.417-3.417,3.417c-1.888,0-3.418-1.53-3.418-3.417c0-1.887,1.53-3.418,3.418-3.418
					C659.044,136.394,660.574,137.924,660.574,139.812z"/>
				<circle style="fill:none;stroke:#AFB9F6;stroke-linejoin:round;stroke-miterlimit:10;" cx="617.756" cy="481.552" r="3.418"/>
				<path style="fill:none;stroke:#AFB9F6;stroke-linejoin:round;stroke-miterlimit:10;" d="M311.364,469.49
					c0,1.888-1.53,3.418-3.417,3.418c-1.888,0-3.418-1.53-3.418-3.418c0-1.887,1.53-3.418,3.418-3.418
					C309.834,466.072,311.364,467.603,311.364,469.49z"/>
				<path style="fill:none;stroke:#AFB9F6;stroke-linejoin:round;stroke-miterlimit:10;" d="M150.527,408.296
					c0,1.887-1.53,3.417-3.417,3.417c-1.887,0-3.418-1.53-3.418-3.417c0-1.888,1.53-3.418,3.418-3.418
					C148.997,404.879,150.527,406.409,150.527,408.296z"/>
				<path style="fill:none;stroke:#AFB9F6;stroke-linejoin:round;stroke-miterlimit:10;" d="M207.013,136.239
					c0,1.887-1.53,3.417-3.417,3.417c-1.887,0-3.418-1.53-3.418-3.417c0-1.887,1.53-3.418,3.418-3.418
					C205.483,132.822,207.013,134.352,207.013,136.239z"/>
				<path style="fill:#D5DFF2;" d="M712.589,207.938h-4.578c-0.822,0-1.489-0.667-1.489-1.489v-4.578
					c0-0.822,0.666-1.489,1.489-1.489h4.578c0.822,0,1.489,0.667,1.489,1.489v4.578
					C714.078,207.271,713.411,207.938,712.589,207.938z"/>
				<path style="fill:#D5DFF2;" d="M56.276,445.917h-8.392c-1.507,0-2.728-1.222-2.728-2.729v-8.392
					c0-1.507,1.222-2.728,2.728-2.728h8.392c1.507,0,2.729,1.221,2.729,2.728v8.392C59.005,444.695,57.783,445.917,56.276,445.917z"
					/>
				<path style="fill:#D5DFF2;" d="M133.945,273.192h-4.578c-0.822,0-1.488-0.667-1.488-1.489v-4.578
					c0-0.822,0.666-1.488,1.488-1.488h4.578c0.822,0,1.489,0.666,1.489,1.488v4.578
					C135.434,272.526,134.767,273.192,133.945,273.192z"/>
				<path style="fill:#D5DFF2;" d="M452.522,93.857h-4.578c-0.822,0-1.488-0.666-1.488-1.489v-4.578
					c0-0.822,0.667-1.489,1.488-1.489h4.578c0.822,0,1.489,0.666,1.489,1.489v4.578C454.01,93.191,453.344,93.857,452.522,93.857z"
					/>
				<path style="fill:#D5DFF2;" d="M688.718,65.551h-8.785c-1.577,0-2.856-1.279-2.856-2.857v-8.785
					c0-1.578,1.279-2.856,2.856-2.856h8.785c1.578,0,2.857,1.279,2.857,2.856v8.785C691.575,64.272,690.296,65.551,688.718,65.551z"
					/>
				<path style="fill:#D5DFF2;" d="M523.338,477.053h-4.578c-0.822,0-1.489-0.666-1.489-1.489v-4.578
					c0-0.822,0.666-1.489,1.489-1.489h4.578c0.822,0,1.489,0.666,1.489,1.489v4.578
					C524.827,476.387,524.161,477.053,523.338,477.053z"/>
			</g>
			<path style="fill:#FFFFFF;" d="M532.212,118.98c0.07-1.211,0.185-2.501,0.359-3.877c1.425-11.281,10.266-10.245,15.769-9.902
				c5.503,0.342,12.342,0.524,14.974-4.723c1.145-2.284,1.095-5.039,1.847-7.507c1.667-5.47,7.233-8.749,12.55-8.76
				c5.311-0.011,10.337,2.648,14.69,5.945c14.133,10.704,18.188-17.481,24.88-25.637c7.617-9.283,21.8-14.485,31.431-7.747
				c9.631,6.738,15.162,18.746,17.685,30.862c0.82,3.939,1.114,8.768,4.309,10.946c9.345,6.369,21.375-5.989,32.669,3.609
				c3.953,3.36,4.703,11.498,4.199,16.791H532.212z"/>
			<path style="fill:#FFFFFF;" d="M43.906,500.516c0.07-1.211,0.185-2.501,0.359-3.877c1.425-11.281,10.267-10.245,15.769-9.902
				c5.503,0.342,12.342,0.524,14.974-4.723c1.145-2.284,1.095-5.039,1.847-7.507c1.667-5.47,7.233-8.749,12.55-8.76
				c5.311-0.011,10.337,2.648,14.69,5.945c14.133,10.704,18.188-17.48,24.88-25.637c7.617-9.283,21.8-14.485,31.431-7.747
				c9.631,6.739,15.162,18.746,17.684,30.862c0.82,3.939,1.114,8.768,4.31,10.946c9.345,6.37,21.375-5.989,32.668,3.609
				c3.954,3.36,4.703,11.498,4.199,16.79H43.906z"/>
		</g>
		<g style="clip-path:url(#SVGID_00000098937150725721195700000001690820968749638017_);">
			<g>
				<g>
					<g>
						<path style="fill:#FFFFFF;" d="M297.859,120.37c-25.048,0-45.353,20.305-45.353,45.353c0,25.048,20.305,45.353,45.353,45.353
							c25.048,0,45.353-20.305,45.353-45.353C343.212,140.675,322.906,120.37,297.859,120.37z M297.859,193.184
							c-15.167,0-27.461-12.295-27.461-27.461c0-15.166,12.295-27.461,27.461-27.461c15.166,0,27.461,12.295,27.461,27.461
							C325.32,180.889,313.025,193.184,297.859,193.184z"/>
					</g>
				</g>
				<g>
					<g>
						<path style="fill:#C5D2E8;" d="M297.859,193.184c-14.887,0-26.999-11.849-27.44-26.629h-17.892
							c0.446,24.662,20.563,44.52,45.332,44.52c24.768,0,44.886-19.858,45.332-44.52h-17.891
							C324.858,181.336,312.746,193.184,297.859,193.184z"/>
					</g>
				</g>
				<g>
					<g>
						<path style="fill:#CDDEFA;" d="M319.974,126.13l-7.829,16.137c7.901,4.822,13.176,13.523,13.176,23.456
							c0,0.279-0.013,0.555-0.021,0.832h17.891c0.005-0.278,0.021-0.553,0.021-0.832
							C343.212,148.708,333.836,133.889,319.974,126.13z"/>
					</g>
				</g>
			</g>
			<g>
				<g>
					<g>
						<path style="fill:#FFFFFF;" d="M13.567,25.799c-25.047,0-45.353,20.305-45.353,45.353s20.305,45.353,45.353,45.353
							c25.048,0,45.353-20.305,45.353-45.353S38.615,25.799,13.567,25.799z M13.567,98.613c-15.166,0-27.461-12.295-27.461-27.461
							c0-15.166,12.295-27.461,27.461-27.461c15.167,0,27.461,12.295,27.461,27.461C41.029,86.318,28.734,98.613,13.567,98.613z"/>
					</g>
				</g>
				<g>
					<g>
						<path style="fill:#FFFFFF;" d="M13.567,43.69c8.078,0,15.329,3.499,20.353,9.051l13.221-12.054
							c-8.294-9.14-20.257-14.888-33.574-14.888c-8.988,0-17.358,2.623-24.404,7.133L0.241,47.165
							C4.19,44.965,8.725,43.69,13.567,43.69z"/>
					</g>
				</g>
				<g>
					<g>
						<path style="fill:#C5D2E8;" d="M58.878,69.488c-0.4-11.076-4.778-21.131-11.737-28.8L33.92,52.742
							c4.06,4.488,6.669,10.313,7.054,16.746H58.878z"/>
					</g>
				</g>
				<g>
					<g>
						<path style="fill:#C5D2E8;" d="M0.241,47.165l-11.077-14.232c-12.151,7.779-20.351,21.189-20.907,36.555
							c-0.02,0.553-0.042,1.106-0.042,1.664c0,11.81,4.518,22.564,11.915,30.634L-6.65,89.732c-4.496-4.89-7.244-11.413-7.244-18.58
							c0-0.559,0.022-1.113,0.055-1.664C-13.264,59.867-7.724,51.601,0.241,47.165z"/>
					</g>
				</g>
				<g>
					<g>
						<path style="fill:#CDDEFA;" d="M58.92,71.152c0-0.558-0.022-1.111-0.042-1.664H40.974c0.033,0.551,0.055,1.105,0.055,1.664
							c0,7.285-2.842,13.902-7.471,18.818l11.066,14.217C53.419,95.915,58.92,84.179,58.92,71.152z"/>
					</g>
				</g>
			</g>
			<g>
				<g>
					<g>
						<path style="fill:#FFFFFF;" d="M653.739,176.684c-25.048,0-45.353,20.305-45.353,45.353c0,25.048,20.305,45.353,45.353,45.353
							c25.048,0,45.353-20.305,45.353-45.353C699.092,196.989,678.787,176.684,653.739,176.684z M653.739,249.499
							c-15.167,0-27.461-12.295-27.461-27.462c0-15.166,12.295-27.461,27.461-27.461c15.166,0,27.461,12.295,27.461,27.461
							C681.2,237.204,668.906,249.499,653.739,249.499z"/>
					</g>
				</g>
				<g>
					<g>
						<path style="fill:#C5D2E8;" d="M681.2,222.037c0,9.87-5.21,18.521-13.028,23.361l12.473,13.144
							c11.187-8.259,18.446-21.533,18.446-36.505c0-13.322-5.745-25.302-14.892-33.6l-12.912,12.48
							C677.344,205.954,681.2,213.544,681.2,222.037z"/>
					</g>
				</g>
			</g>
		</g>
		<g style="clip-path:url(#SVGID_00000098937150725721195700000001690820968749638017_);">
			<g>
				<g>
					<g>
						<g>
							<g>
								<polygon style="fill:#F0C9B9;" points="389.687,388.866 400.005,377.088 384.895,358.977 374.671,368.308 370.247,385.784 
																	"/>
								<g>
									<path style="fill:#272327;" d="M376.346,366.365c0,0-20.861,10.671-19.575,12.88l33.818,49.728
										c0,0,6.514-9.581,1.54-20.238c-7.509-16.088-0.029-19.508-0.029-19.508l-19.882-4.888L376.346,366.365z"/>
								</g>
							</g>
							<g>
								<path style="fill:#1F5C85;" d="M436.797,275.894c1.397,2.301-57.256,83.306-57.256,83.306
									c6.338,9.579,15.613,23.139,15.613,23.139c0.168,0.277,0.483,0.428,0.804,0.388c0,0,66.067-54.852,87.204-97.189
									c0.216-0.433,0.422-0.932,0.614-1.485c4.026-11.555-4.067-23.821-16.218-25.265l-56.609,0.39"/>
								<path style="fill:none;stroke:#FFFFFF;stroke-width:0.3196;stroke-miterlimit:10;" d="M434.786,193.051
									c0,0-21.392,8.119-12.181,20.073c5.676,7.367,19.283,42.496,31.829,60.054c7.956,11.134,6.776,26.363-2.794,36.144
									l-60.354,65.812"/>
							</g>
							<g>
								<g>
									<path style="fill:#3D7BA5;" d="M205.659,302.714l0.096,0h26.159v76.17h-26.159h0.096
										c-6.477,9.978-17.792,14.816-30.574,14.816l0,0V287.898l0,0C188.059,287.898,199.182,292.736,205.659,302.714z"/>
									<g>
										<g>
											<path style="fill:#F26D76;" d="M175.277,310.997c-5.567-2.47-13.492-3.98-19.565-4.445
												c-0.919-0.07-1.874-0.112-2.729,0.231c-2.01,0.804-2.677,3.492-1.977,5.54c0.699,2.048,2.366,3.592,3.971,5.044
												c-20.677,1.081-40.752,10.946-54.242,26.655c-0.671,0.782-1.367,1.7-1.261,2.725c0.087,0.85,0.707,1.536,1.306,2.145
												c14.579,14.828,35.903,22.747,56.626,21.031c-2.383,3.659,1.623,8.741,5.976,9.081c4.353,0.34,8.321-2.284,11.895-4.793"
												/>
										</g>
										<path style="fill:#F26D76;" d="M147.109,378.555c-7.4,2.106-14.412,5.151-20.824,9.127
											c-6.392,3.991-12.215,8.856-17.097,14.541c-4.924,5.647-8.906,12.107-11.939,19.004
											c-3.015,6.915-5.027,14.289-6.056,21.914c-0.284-7.7,1.088-15.504,3.777-22.827c2.671-7.34,6.722-14.197,11.841-20.149
											c5.161-5.915,11.366-10.907,18.248-14.6C131.923,381.857,139.449,379.381,147.109,378.555z"/>
										<path style="fill:#F26D76;" d="M139.711,312.449c-6.856-0.792-13.597-2.789-19.943-5.651
											c-6.363-2.846-12.312-6.62-17.718-11.042c-5.369-4.467-10.202-9.593-14.204-15.301c-4.014-5.688-7.252-11.93-9.325-18.513
											c3.279,6.064,7.017,11.77,11.283,17.033c4.279,5.245,9.028,10.083,14.247,14.357c5.183,4.318,10.834,8.063,16.795,11.272
											C126.823,307.795,133.135,310.383,139.711,312.449z"/>
										<path style="fill:#F26D76;" d="M103.114,318.652c-2.383-0.464-4.627-1.205-6.823-2.044
											c-2.195-0.84-4.341-1.777-6.432-2.825c-2.096-1.039-4.132-2.197-6.122-3.446c-1.989-1.252-3.928-2.604-5.727-4.236
											c2.385,0.46,4.63,1.2,6.825,2.04c2.194,0.842,4.342,1.776,6.43,2.829c2.093,1.044,4.13,2.199,6.12,3.451
											C99.373,315.673,101.313,317.024,103.114,318.652z"/>
										<path style="fill:#F26D76;" d="M87.429,346.873c-0.939,0.82-1.931,1.316-2.936,1.737
											c-1.008,0.401-2.037,0.681-3.082,0.857c-1.046,0.176-2.11,0.244-3.193,0.19c-1.087-0.072-2.187-0.222-3.341-0.699
											c0.938-0.824,1.93-1.322,2.936-1.741c1.008-0.401,2.037-0.681,3.083-0.852c1.046-0.172,2.11-0.24,3.194-0.186
											C85.176,346.253,86.276,346.401,87.429,346.873z"/>
										<path style="fill:#F26D76;" d="M104.216,367.95l-6.763,4.199c-2.194,1.403-4.314,2.87-6.39,4.395
											c-2.07,1.534-4.104,3.118-6.094,4.796l-6.024,5.204c1.024-2.54,2.531-4.845,4.284-6.934
											c1.756-2.09,3.761-3.983,5.971-5.599c2.203-1.624,4.605-2.978,7.124-4.03C98.84,368.929,101.487,368.175,104.216,367.95z"
											/>
									</g>
									<path style="opacity:0.5;fill:#3D7BA5;" d="M225.637,354.049c-6.816-16.676-19.882-51.336-19.882-51.336h26.159v66.747
										C229.715,364.372,227.731,359.171,225.637,354.049z"/>
									<g>
										<path style="fill:#40B7D6;" d="M329.757,271.437l-33.701-28.8c-8.196-7.004-18.972-10.214-29.664-8.838l-60.875,7.835
											c-4.279,0.551-7.231,4.565-6.481,8.813l0,0c0.664,3.764,4.033,6.44,7.849,6.236l27.471-1.465
											c16.875-0.9,31.872,10.673,35.28,27.225l0,0L329.757,271.437z"/>
										<path style="fill:#40B7D6;" d="M329.757,408.376l-33.701,28.799c-8.196,7.004-18.972,10.214-29.664,8.838l-60.875-7.835
											c-4.279-0.551-7.231-4.565-6.481-8.814l0,0c0.664-3.764,4.033-6.44,7.849-6.236l27.471,1.465
											c16.875,0.9,31.872-10.673,35.28-27.225l0,0L329.757,408.376z"/>
									</g>
									<g style="opacity:0.5;">
										<path style="fill:#40B7D6;" d="M308.214,253.027l21.543,18.41l-60.121,11.008l0,0c-0.671-3.257-1.804-6.311-3.298-9.126
											C280.424,266.82,294.417,260.125,308.214,253.027z"/>
										<path style="fill:#40B7D6;" d="M291.21,423.794c-8.078-6.26-16.043-12.665-24.031-19.04
											c1.07-2.326,1.921-4.785,2.457-7.386l0,0l60.121,11.008l-27.216,23.257C298.541,428.745,294.276,426.169,291.21,423.794z"
											/>
									</g>
									<path style="fill:#FFFFFF;" d="M240.845,394.22c0,0,45.726,17.783,93.993,16.936
										c48.267-0.847,203.28,11.008,272.716-22.863c41.424-20.207,58.437-32.879,65.422-39.815
										c3.161-3.138,2.78-8.344-0.789-11.008c-14.262-10.644-51.738-38.079-68.02-44.863
										c-20.323-8.468-107.593-27.944-274.409-21.17c0,0-61.815,3.387-88.912,15.242V394.22z"/>
									<path style="opacity:0.37;fill:#7A7B82;" d="M552.648,393.183c33.156-4.933,67.525-12.988,95.117-32.966
										c1.157-0.838,2.016-1.82,2.623-2.878c8.218-5.056,16.332-10.29,24.584-15.289c0.399,2.252-0.22,4.663-1.997,6.427
										c-6.985,6.936-23.998,19.609-65.422,39.815c-69.436,33.871-224.449,22.016-272.716,22.863
										c-48.266,0.847-93.993-16.935-93.993-16.935l0.494-108.433c1.154,105.599,144.181,114.138,196.595,115.529
										C476.231,402.333,514.789,398.815,552.648,393.183z"/>
									<path style="fill:#40B7D6;" d="M606.67,306.32c-0.723-4.588-1.575-9.165-2.532-13.727c0.009,0.004,0.019,0.008,0.029,0.012
										c16.281,6.784,53.757,34.219,68.02,44.863c3.57,2.664,3.95,7.869,0.789,11.008c-6.985,6.936-23.998,19.609-65.422,39.815
										c-0.888,0.433-1.807,0.827-2.706,1.245C611.599,362.463,610.999,333.773,606.67,306.32z"/>
									<path style="opacity:0.5;fill:#40B7D6;" d="M638.076,359.517c10.591-8.014,21.56-15.489,32.143-23.513
										c0.691,0.514,1.358,1.01,1.968,1.465c3.57,2.664,3.95,7.869,0.789,11.008c-6.985,6.936-23.998,19.609-65.422,39.815
										c-0.888,0.433-1.807,0.827-2.706,1.245c0.953-3.821,1.744-7.677,2.414-11.555
										C618.477,373.714,628.484,366.775,638.076,359.517z"/>
									<path style="fill:#3D7BA5;" d="M226.913,290.404v99.251c0,4.462,3.617,8.079,8.079,8.079l0,0
										c4.462,0,8.079-3.617,8.079-8.079v-99.251c0-4.462-3.617-8.079-8.079-8.079l0,0
										C230.53,282.325,226.913,285.942,226.913,290.404z"/>
									<path style="fill:#3D7BA5;" d="M526.823,299.636c-23.583,0-42.701,19.118-42.701,42.701
										c0,23.583,19.118,42.701,42.701,42.701c23.583,0,42.701-19.118,42.701-42.701
										C569.525,318.754,550.407,299.636,526.823,299.636z M526.823,312.074c16.714,0,30.263,13.549,30.263,30.263
										c0,16.714-13.549,30.263-30.263,30.263c-16.714,0-30.263-13.549-30.263-30.263
										C496.56,325.624,510.109,312.074,526.823,312.074z"/>
									<circle style="opacity:0.37;fill:#7A7B82;" cx="526.823" cy="342.337" r="30.263"/>
									<g style="opacity:0.6;">
										<path style="fill:#FAF9F4;" d="M524.714,372.494c-15.726-1.087-28.154-14.155-28.154-30.157
											c0-2.499,0.336-4.914,0.907-7.237C506.378,347.687,515.464,360.15,524.714,372.494z"/>
										<path style="fill:#FAF9F4;" d="M507.338,319.199c5.266-4.439,12.059-7.125,19.485-7.125
											c16.714,0,30.263,13.549,30.263,30.263c0,10.822-5.699,20.291-14.24,25.64
											C530.719,351.929,518.862,335.68,507.338,319.199z"/>
									</g>
									<g>
										<g>
											<path style="fill:none;stroke:#3D7BA5;stroke-width:0.3478;stroke-miterlimit:10;" d="M563.177,339.452
												c1.594,0,2.885,1.292,2.885,2.885s-1.292,2.885-2.885,2.885s-2.885-1.292-2.885-2.885S561.584,339.452,563.177,339.452z"
												/>
											<path style="fill:none;stroke:#3D7BA5;stroke-width:0.3478;stroke-miterlimit:10;" d="M490.47,339.452
												c1.594,0,2.885,1.292,2.885,2.885s-1.292,2.885-2.885,2.885s-2.885-1.292-2.885-2.885S488.876,339.452,490.47,339.452z"
												/>
										</g>
										<g>
											<path style="fill:none;stroke:#3D7BA5;stroke-width:0.3478;stroke-miterlimit:10;" d="M550.489,314.591
												c1.127-1.127,2.954-1.127,4.08,0c1.127,1.127,1.127,2.954,0,4.08c-1.127,1.127-2.954,1.127-4.08,0
												C549.362,317.545,549.362,315.718,550.489,314.591z"/>
											<path style="fill:none;stroke:#3D7BA5;stroke-width:0.3478;stroke-miterlimit:10;" d="M499.077,366.003
												c1.127-1.127,2.953-1.127,4.08,0c1.127,1.127,1.127,2.954,0,4.08c-1.127,1.127-2.954,1.127-4.08,0
												C497.951,368.957,497.951,367.13,499.077,366.003z"/>
										</g>
										<g>
											<path style="fill:none;stroke:#3D7BA5;stroke-width:0.3478;stroke-miterlimit:10;" d="M523.938,305.984
												c0-1.594,1.292-2.885,2.885-2.885s2.885,1.292,2.885,2.885c0,1.593-1.292,2.885-2.885,2.885
												S523.938,307.577,523.938,305.984z"/>
											<path style="fill:none;stroke:#3D7BA5;stroke-width:0.3478;stroke-miterlimit:10;" d="M523.938,378.691
												c0-1.594,1.292-2.885,2.885-2.885s2.885,1.292,2.885,2.885c0,1.593-1.292,2.885-2.885,2.885
												S523.938,380.285,523.938,378.691z"/>
										</g>
										<g>
											<path style="fill:none;stroke:#3D7BA5;stroke-width:0.3478;stroke-miterlimit:10;" d="M499.077,318.672
												c-1.127-1.127-1.127-2.954,0-4.08c1.127-1.127,2.953-1.127,4.08,0c1.127,1.127,1.127,2.954,0,4.08
												C502.031,319.798,500.204,319.798,499.077,318.672z"/>
											<path style="fill:none;stroke:#3D7BA5;stroke-width:0.3478;stroke-miterlimit:10;" d="M550.489,370.084
												c-1.127-1.127-1.127-2.953,0-4.08c1.127-1.127,2.954-1.127,4.08,0c1.127,1.127,1.127,2.954,0,4.08
												C553.443,371.21,551.616,371.21,550.489,370.084z"/>
										</g>
									</g>
									<path style="fill:none;stroke:#3D7BA5;stroke-width:0.6955;stroke-miterlimit:10;stroke-dasharray:5.5642;" d="
										M465.657,411.583c0,0,24.236-71.553,1.154-138.491"/>
									<path style="fill:none;stroke:#3D7BA5;stroke-width:0.6955;stroke-miterlimit:10;stroke-dasharray:5.5642;" d="
										M570.928,398.185c5.437-22.541,13.536-70.196-0.021-117.08"/>
									<path style="fill:none;stroke:#3D7BA5;stroke-width:0.6955;stroke-miterlimit:10;stroke-dasharray:5.5642;" d="
										M448.345,411.583c0,0,24.236-71.553,1.154-138.491"/>
								</g>
							</g>
						</g>
						<g>
							<g>
								<polygon style="fill:#F0C9B9;" points="457.333,397.797 456.13,382.279 432.639,384.399 431.884,398.446 443.737,412.029 
																	"/>
								<g>
									<path style="fill:#272327;" d="M431.239,395.963c0,0-3.096,23.227-0.547,23.426l60.135,0.487
										c0,0-4.172-10.808-15.766-12.782c-17.503-2.98-16.058-11.077-16.058-11.077l-15.333,13.568L431.239,395.963z"/>
								</g>
							</g>
							<g>
								<path style="fill:#3D7BA5;" d="M334.158,255.699v0.004c0,23.603,18.953,42.737,42.333,42.737h46.095
									c2.691,0,4.652,2.575,3.96,5.201l3.737,85.478c-0.138,0.525,0.254,1.04,0.792,1.04h16.027c0.323,0,9.725,0.705,9.857,0.407
									l12.489-109.3c4.778-10.823-2.93-23.06-14.665-23.282L334.158,255.699z"/>
								<path style="fill:none;stroke:#FFFFFF;stroke-width:0.3196;stroke-miterlimit:10;" d="M360.917,256.929
									c0,0-4.166,25.832,19.999,24.999c13.431-0.463,35.099-0.154,51.699,0.212c11.797,0.26,20.156,11.613,16.915,22.958
									l-6.04,84.39"/>
							</g>
						</g>
					</g>
					<g>
						<g>
							<path style="fill:#F0C9B9;" d="M493.963,165.643l12.607-19.522l-9.795-10.273c0,0,4.539-12.901,4.061-15.051
								c-1.042-4.688-23.458,32.925-23.458,32.925l-16.332,16.222l19.569,19.041L493.963,165.643z"/>
							<g>
								<g>
									<g>
										<path style="fill:#D18362;" d="M486.569,139.964c1.405,0.686,2.809,1.372,4.214,2.058c0.858,0.419,3.488,1.31,2.069,2.613
											c-0.494,0.454-1.241,0.567-1.873,0.696c-0.818,0.167-1.643,0.294-2.474,0.377c-1.538,0.154-3.086,0.162-4.626,0.04
											c-0.435-0.034-0.432,0.643,0,0.678c1.85,0.147,3.707,0.099,5.546-0.149c0.851-0.115,1.716-0.249,2.546-0.478
											c0.658-0.181,1.31-0.484,1.687-1.081c0.34-0.537,0.379-1.212,0.008-1.743c-0.396-0.566-1.102-0.836-1.698-1.127
											c-1.686-0.823-3.371-1.646-5.057-2.469C486.521,139.189,486.177,139.773,486.569,139.964L486.569,139.964z"/>
									</g>
								</g>
								<g>
									<g>
										<path style="fill:#D18362;" d="M496.178,136.105c-1.325,1.745-2.476,3.615-3.438,5.583
											c-0.191,0.39,0.393,0.734,0.585,0.342c0.963-1.968,2.114-3.838,3.439-5.583
											C497.027,136.1,496.439,135.762,496.178,136.105L496.178,136.105z"/>
									</g>
								</g>
								<g>
									<g>
										<path style="fill:#D18362;" d="M491.57,145.6c-0.211,0.952,0.546,1.786,1.456,1.964c1.104,0.215,2.101-0.561,2.849-1.271
											c1.736-1.65,3.155-3.632,4.189-5.79c0.187-0.391-0.397-0.735-0.585-0.342c-0.837,1.749-1.921,3.369-3.238,4.794
											c-0.61,0.66-1.286,1.427-2.125,1.797c-0.435,0.191-0.911,0.241-1.338,0.009c-0.356-0.193-0.648-0.558-0.555-0.98
											C492.318,145.355,491.665,145.173,491.57,145.6L491.57,145.6z"/>
									</g>
								</g>
								<g>
									<g>
										<path style="fill:#D18362;" d="M493.832,147.406c0.105,0.735,0.296,1.449,0.58,2.135c0.225,0.545,0.487,1.155,0.899,1.588
											c0.907,0.955,2.248,0.104,3.057-0.556c0.995-0.812,1.726-1.9,2.461-2.94c0.922-1.306,1.845-2.613,2.767-3.919
											c0.252-0.357-0.335-0.696-0.585-0.342c-0.752,1.064-1.503,2.129-2.255,3.193c-0.681,0.965-1.331,1.973-2.138,2.839
											c-0.554,0.594-2.119,2.117-2.886,1.172c-0.734-0.904-1.085-2.221-1.246-3.351
											C494.424,146.796,493.771,146.979,493.832,147.406L493.832,147.406z"/>
									</g>
								</g>
								<g>
									<g>
										<path style="fill:#D18362;" d="M497.852,150.483c0.173,1.17,1.071,2.192,2.207,2.52c1.163,0.336,2.496-0.092,3.257-1.028
											c0.273-0.335-0.204-0.818-0.479-0.479c-0.615,0.757-1.647,1.128-2.598,0.854c-0.929-0.269-1.594-1.105-1.734-2.047
											c-0.027-0.182-0.255-0.279-0.417-0.237C497.894,150.118,497.825,150.303,497.852,150.483L497.852,150.483z"/>
									</g>
								</g>
							</g>
						</g>
						<path style="fill:#DE4A54;" d="M417.778,253.748c0,0-15.664-107.979-19.661-114.702c0,0,9.267-4.906,21.622,21.077
							c12.356,25.983,14.105,33.506,14.105,33.506l27.202-27.915l22.214,23.272l-49.416,64.244l-14.511,1.555"/>
						<g>
							<path style="fill:#F26D76;" d="M356.618,132.12c0,0-29.112,9.279-32.785,37.825c-3.673,28.546,13.055,101.775,13.055,101.775
								s17.795-7.548,25.137-9.563c10.854-2.979,18.976-3.14,26.716-3.275l32.024-0.56l-11.334-96.807
								c-1.696-7.285-2.602-17.752-9.234-21.929l-11.198-6.773l-22.171-5.695L356.618,132.12z"/>
							<path style="fill:#DE4A54;" d="M421.747,252.762c-8.447-16.893-75.129-109.207-73.972-116.523
								c-8.887,5.117-21.596,15.479-23.941,33.705c-3.673,28.546,13.055,101.776,13.055,101.776s17.795-7.548,25.137-9.563
								c10.854-2.979,18.976-3.14,26.716-3.275l36.338-0.286C425.913,257.762,422.163,253.596,421.747,252.762z"/>
						</g>
						<g>
							<path style="fill:#F0C9B9;" d="M387.529,230.24l25.916,7.405c0,0,24.858,7.405,31.734,19.041l-59.237-1.587L387.529,230.24z"
								/>
							<path style="fill:#F26D76;" d="M358.439,133.98c-6.592-4.179-31.731,9.791-37.182,36.683
								c-5.531,28.832,4.248,86.126,13.674,89.579c9.426,3.452,49.953-0.911,49.953-0.911s1.923-25.509,3.173-33.321l-32.263-1.058
								C355.795,224.951,363.126,185.539,358.439,133.98z"/>
						</g>
					</g>
					<g>
						<g>
							<rect x="378.889" y="254.534" style="fill:#060B0F;" width="53.006" height="6.216"/>
							<polygon style="fill:#272327;" points="378.889,254.534 413.524,254.534 410.799,260.751 378.889,260.751 							"/>
							<polygon style="fill:#272327;" points="498.154,260.751 414.611,260.751 434.776,203.135 518.319,203.135 							"/>
							<path style="fill:#6E626E;" d="M471.38,233.562c0-2.897-2.348-5.245-5.245-5.245c-2.897,0-5.245,2.348-5.245,5.245
								c0,2.897,2.348,5.245,5.245,5.245C469.031,238.807,471.38,236.459,471.38,233.562z"/>
						</g>
					</g>
					<g>
						<g>
							<path style="fill:#F0C9B9;" d="M370.27,105.869l-4.25,20.177l7.757,8.815c12.073,13.027,13.751,4.408,16.014,3.313
								l-1.555-23.668l-11.25-4.49L370.27,105.869z"/>
							<path style="fill:#D18362;" d="M376.987,110.017l11.25,6.217c0,0,1.209,10.884-2.073,11.229
								c-2.746,0.289-12.205-8.519-11.229-15.203"/>
						</g>
						<g>
							<path style="fill:#272327;" d="M370.186,108.587c0,0-1.513-8.365,0.388-6.025l5.048-18.77c0,0,3.163,3.629,6.254,5.766
								c3.091,2.137,10.333,0.937,12.245,0.096c1.912-0.841,1.121-9.571,1.121-9.571s7.908-6.888,6.639-9.365
								c-1.269-2.477-7.107,2.551-7.107,2.551s6.284-7.138,3.125-9.138c-6.278-3.976-28.329,7.078-28.329,7.078
								s-11.404,3.336-5.952,9.744c0,0-6.068,31.183,5.433,28.281"/>
							<path style="fill:#F0C9B9;" d="M395.868,79.782c3.771,28.334,2.72,36.749,0.07,38.945c-3.814,3.16-10.734,1.252-14.101-0.029
								c-5.525-2.101-9.426-7.968-10.639-9.712c-0.598-0.86-7.565,0.578-6.625-6.046c0.693-4.88,3.29-3.321,4.609-2.161
								c0.385,0.338,0.989,0.175,1.153-0.31c0.977-2.887,4.149-13.781,5.196-17.271c0.454-1.513,7.084-1.278,7.74-1.374
								c5.722-0.834,10.865-0.677,12.332-1.834L395.868,79.782z"/>
							<g>
								<path style="fill:#FFFFFF;" d="M396.663,105.07c0,0-2.13,1.154-7.471,0.899c0,0,3.027,3.663,5.091,2.838
									C396.347,107.981,396.663,105.07,396.663,105.07z"/>
								<path style="fill:#D49C85;" d="M365.604,102.405l3.825,2.567C369.43,104.972,367.759,98.43,365.604,102.405z"/>
								<path style="fill:#13223B;" d="M391.981,97.586c0.035,0.791-0.258,1.445-0.653,1.463c-0.396,0.017-0.744-0.609-0.779-1.4
									c-0.035-0.791,0.258-1.446,0.653-1.463C391.598,96.168,391.946,96.795,391.981,97.586z"/>
								<path style="fill:#13223B;" d="M396.609,96.681c0.035,0.791-0.258,1.446-0.653,1.463c-0.395,0.017-0.744-0.61-0.778-1.4
									c-0.035-0.79,0.258-1.445,0.653-1.463C396.226,95.263,396.575,95.89,396.609,96.681z"/>
								<path style="fill:#13223B;" d="M385.911,90.845c-1.029,0.77,0.487-2.576,1.913-3.004c1.426-0.428,2.881,0.224,3.25,1.455
									C391.074,89.296,388.383,88.995,385.911,90.845z"/>
								<path style="fill:#13223B;" d="M397.233,90.867c-1.529-0.127-2.609,0.185-2.609,0.185c0.146-1.188,1.231-2.062,2.549-2.154"
									/>
								<path style="fill:#D49C85;" d="M394.416,96.736l2.448,5.969c0.04,0.097-0.02,0.207-0.118,0.219l-2.567,0.303
									c-0.089,0.011-0.167-0.065-0.165-0.16l0.119-6.273C394.136,96.625,394.352,96.581,394.416,96.736z"/>
							</g>
						</g>
					</g>
					<g>
						<path style="fill:#FFFFFF;" d="M360.555,129.22c0-0.793,4.496-9.52,4.496-9.52l22.743,19.569l-1.058,14.016L360.555,129.22z"
							/>
						<polygon style="fill:#FFFFFF;" points="387.793,139.269 389.292,126.575 395.815,136.977 393.347,151.434 						"/>
					</g>
				</g>
				<g>
					<g>
						<path style="fill:#40B7D6;" d="M533.139,87.322c0-10.546-8.549-19.095-19.094-19.095c-10.546,0-19.095,8.549-19.095,19.095
							c0,10.545,18.171,27.102,18.171,27.102S533.139,97.868,533.139,87.322z"/>
						<path style="fill:none;stroke:#272327;stroke-width:0.75;stroke-miterlimit:10;" d="M508.501,105.801
							c0,0,2.464-20.019-0.308-18.787c-2.772,1.232-4.312,4.312-1.232,4.928c3.08,0.616,15.399,0,15.399,0s1.098-3.503-0.924-4.312
							c-3.08-1.232-3.08,10.471-3.696,18.787"/>
						<g>
							<path style="fill:#3D7BA5;" d="M520.82,110.113h-15.399c-1.191,0-2.156-0.965-2.156-2.156l0,0
								c0-1.191,0.965-2.156,2.156-2.156h15.399c1.19,0,2.156,0.965,2.156,2.156l0,0
								C522.976,109.147,522.011,110.113,520.82,110.113z"/>
							<path style="fill:#3D7BA5;" d="M513.429,119.968L513.429,119.968c-4.933,0-8.931-3.999-8.931-8.931v-1.54h17.863v1.54
								C522.36,115.969,518.361,119.968,513.429,119.968z"/>
						</g>
					</g>
					<g>
						<g>
							
								<line style="fill:none;stroke:#272327;stroke-width:0.75;stroke-linecap:round;stroke-miterlimit:10;" x1="479.616" y1="87.443" x2="488.296" y2="87.443"/>
							
								<line style="fill:none;stroke:#272327;stroke-width:0.75;stroke-linecap:round;stroke-miterlimit:10;" x1="540.372" y1="87.443" x2="549.051" y2="87.443"/>
						</g>
						<g>
							
								<line style="fill:none;stroke:#272327;stroke-width:0.75;stroke-linecap:round;stroke-miterlimit:10;" x1="489.785" y1="62.895" x2="495.922" y2="69.032"/>
							
								<line style="fill:none;stroke:#272327;stroke-width:0.75;stroke-linecap:round;stroke-miterlimit:10;" x1="532.745" y1="105.855" x2="538.883" y2="111.992"/>
						</g>
						<g>
							
								<line style="fill:none;stroke:#272327;stroke-width:0.75;stroke-linecap:round;stroke-miterlimit:10;" x1="514.334" y1="52.726" x2="514.334" y2="61.405"/>
						</g>
						<g>
							
								<line style="fill:none;stroke:#272327;stroke-width:0.75;stroke-linecap:round;stroke-miterlimit:10;" x1="538.883" y1="62.895" x2="532.745" y2="69.032"/>
							
								<line style="fill:none;stroke:#272327;stroke-width:0.75;stroke-linecap:round;stroke-miterlimit:10;" x1="495.922" y1="105.855" x2="489.785" y2="111.992"/>
						</g>
					</g>
				</g>
			</g>
		</g>
	</g>
</g>
</svg>
