<?xml version="1.0" encoding="utf-8"?>
<!-- Generator: Adobe Illustrator 27.5.0, SVG Export Plug-In . SVG Version: 6.00 Build 0)  -->
<svg version="1.1" xmlns="http://www.w3.org/2000/svg" xmlns:xlink="http://www.w3.org/1999/xlink" x="0px" y="0px"
	 viewBox="0 0 1122 1122" style="enable-background:new 0 0 1122 1122;" xml:space="preserve">
<g id="Background">
	<rect style="fill:#B5D6CA;" width="1122" height="1122"/>
</g>
<g id="Shadow">
	<path style="opacity:0.55;fill:#F7F7F7;" d="M993.082,1044.726c-21.911-3.998-43.805-8.191-66.235-9.797
		c-58.188-4.167-115.086,4.481-173.008,7.893c-54.723,3.224-109.538,4.348-164.308,6.484c-12.55,0.489-25.097,1.03-37.641,1.663
		c-41.41,2.088-64.512,4.823-118.667,5.489c-42.276,0.52-84.34-1.433-126.603,0.753c-44.572,2.305-89.093,5.595-133.519,9.868
		c-3.549,0.341-7.26,0.745-10.221,2.731c-10.09,6.766,1.363,13.89,8.508,14.478c72.492,5.971,145.213,6.275,217.836,2.653
		c160.102-7.985,316.806-13.239,477.196-15.805c32.712-0.535,65.422-1.16,98.129-1.911c16.631-0.382,33.261-0.793,49.891-1.233
		c15.404-0.408,32.32,1.016,47.457-2.06c1.884-0.383,3.819-0.883,5.313-2.094c1.494-1.211,2.425-3.316,1.726-5.108
		c-0.569-1.461-2.027-2.359-3.444-3.03c-8.63-4.09-18.72-2.977-27.969-4.01C1022.59,1050.021,1007.832,1047.417,993.082,1044.726z"
		/>
</g>
<g id="Object">
	<g>
		<g>
			<g>
				<g>
					<path style="fill:#E5D1BD;" d="M663.506,890.375c-1.665,2.797-3.33,5.594-4.995,8.39c-10.231-4.468-20.262-9.904-29.796-16.146
						c4.057-2.796,5.787-9.081,12.827-5.724C643.821,877.983,663.177,890.928,663.506,890.375z"/>
					<path style="fill:#0C1721;" d="M655.81,902.139c0.122,1.639,1.051,3.237,2.544,4.375c0.867,0.661,1.922,1.18,2.612,1.962
						c0.677,0.768,0.933,1.714,1.174,2.631c1.271,4.829,2.891,19.056,12.557,10.387c8.778-7.872,1.328-25.13-2.175-33.865
						c-0.23-0.574-0.491-1.177-1.063-1.573c-0.611-0.423-1.461-0.53-2.262-0.606c-4.458-0.423-11.244-1.158-11.529,3.897
						c-0.121,2.156,1.363,4.263,1.08,6.568C658.515,897.803,655.701,900.664,655.81,902.139z"/>
				</g>
				<path style="fill:#1A3151;" d="M577.25,741.466c4.207,17.643-0.034,34.586,2.428,52.469c4.76,34.57,73.803,84.799,73.803,84.799
					s-11.526,15.093-13.844,15.992c-19.57-7.052-80.294-37.552-95.618-69.515c-14.962-31.207-28.548-63.111-40.683-95.553
					c-2.227-5.955-4.396-12.809-1.874-18.192c1.935-4.128,6.133-6.191,10.137-7.806c10.713-4.319,29.927-13.436,41.637-6.842
					C566.036,704.026,574.018,727.91,577.25,741.466z"/>
			</g>
			<g>
				<g>
					<path style="fill:#E5D1BD;" d="M589.573,926.357c-2.378,2.223-4.756,4.445-7.133,6.668
						c-8.583-7.139-16.704-15.153-24.123-23.803c4.675-1.556,8.086-7.111,13.913-1.926
						C574.115,908.974,589.103,926.797,589.573,926.357z"/>
					<path style="fill:#0C1721;" d="M578.363,936.648c-0.167,1.635,0.467,3.371,1.738,4.753c0.738,0.802,1.686,1.498,2.227,2.389
						c0.532,0.875,0.618,1.85,0.695,2.796c0.405,4.977-0.492,19.268,10.542,12.427c10.021-6.213,5.71-24.508,3.792-33.722
						c-0.126-0.606-0.278-1.245-0.771-1.735c-0.528-0.524-1.345-0.778-2.12-0.993c-4.315-1.198-10.868-3.111-12.034,1.817
						c-0.497,2.102,0.595,4.436-0.088,6.656C581.786,932.853,578.513,935.177,578.363,936.648z"/>
				</g>
				<path style="fill:#1A3151;" d="M550.364,752.808c-1.238,18.932-10.704,34.558-13.76,53.191
					c-5.907,36.021,47.605,107.525,47.605,107.525s-16.176,11.53-18.771,11.713c-17.385-13.086-68.668-62.303-74.125-98.978
					c-5.327-35.807-9.064-71.886-11.184-108.056c-0.389-6.639-0.443-14.159,3.74-18.76c3.207-3.529,8.04-4.296,12.54-4.674
					c12.04-1.012,34.057-4.196,43.727,6.006C550.706,711.928,551.316,738.262,550.364,752.808z"/>
			</g>
			<g>
				<g>
					<path style="fill:#EACDB0;" d="M494.275,568.123c4.993,0.336,9.986,0.672,14.98,1.008c0.707-3.928,1.1-7.913,1.173-11.903
						c4.335-0.754,9.427-2.12,10.858-6.281c0.451-1.311,0.448-2.727,0.441-4.113c-0.029-5.729-0.059-11.458-0.088-17.187
						c-0.01-1.982-0.032-4.023-0.803-5.849c-1.353-3.203-4.707-5.067-7.987-6.22c-8.371-2.941-18.08-2.647-25.711,1.88
						c-2.031,1.205-3.943,2.742-5.094,4.804c-1.776,3.179-1.496,7.06-1.166,10.686c0.305,3.347,0.61,6.694,0.914,10.041
						c0.35,3.85,1.046,8.276,4.367,10.253c1.763,1.05,4.026,1.209,5.552,2.581C494.401,560.243,493.246,564.654,494.275,568.123z"/>
					<path style="fill:#15273D;" d="M453.815,504.259c-0.614-1.533-1.301-3.027-2.111-4.456c-1.755-3.096-4.087-5.889-5.359-9.212
						c-1.272-3.323-1.211-7.53,1.39-9.958c1.679-1.567,4.065-2.091,6.345-2.367c7.513-0.908,15.264,0.244,22.189,3.297
						c6.595,2.908,12.275,6.844,19.643,5.416c6.924-1.342,11.464,0.438,17.867,4.009c6.929,3.864,16.718,6.142,22.767,10.971
						c2.526,2.017,4.343,4.812,5.627,7.778c4.45,10.277,2.341,23.066-5.172,31.37c-1.685,1.863-3.603,3.503-5.589,5.043
						c-4.108,3.188-9.047,7.148-14.064,7.745c0.603-4.298,6.76-17.136,4.062-21.193c-4.282-6.438-16.398-6.472-23.096-6.186
						c-7.306,0.313-14.433,4.256-21.607,4.151c-5.162-0.075-11.173-3.62-15.018-6.939
						C456.945,519.63,456.055,509.852,453.815,504.259z"/>
				</g>
			</g>
			<path style="fill:#145566;" d="M522.279,568.587c28.857,14.614,38.408,61.212,50.401,88.784
				c8.208,18.873,19.713,40.37,40.107,43.141c13.174,1.79,25.82-5.158,37.081-12.227c-4.53,15.833-10.888,33.748-26.272,39.623
				c-11.359,4.338-24.302,0.544-36.144,3.301c-12.774,2.974-23.898,13.439-36.959,12.244c-9.91-0.907-17.984-8.41-27.609-10.94
				c-14.876-3.911-29.844,4.51-43.487,11.614c-3.972,2.068-8.552,4.095-12.777,2.611c-5.423-1.906-7.404-8.505-7.917-14.229
				c-2.343-26.112,9.552-50.298,14.372-75.398c4.325-22.526-5.688-43.46-0.872-66.304c3.389-16.075,16.764-26.843,33.208-26.524
				C511.521,564.4,517.16,565.977,522.279,568.587z"/>
			<g>
				<path style="fill:#EACDB0;" d="M442.977,461.023c2.057,2.601,4.114,5.202,6.171,7.802c0.637,0.805,2.837,2.657,1.734,3.835
					c-0.535,0.572-2.195,2.655-3.973,4.639c-0.867,2.084-1.819,4.135-2.505,6.287c-1.738,5.446,0.377,18.792-6.717,20.229
					c-1.372,0.278-2.78,0.557-4.126,0.302c-1.101-0.208-2.101-0.762-3.055-1.36c-0.743-0.466-2.036-1.004-2.224-1.902
					c-0.198-0.942,0.807-3.221,1.054-4.206c0.705-2.816,1.409-5.631,2.114-8.446c0.691-2.762,1.272-6.069-0.49-8.023
					c-0.385-0.427-0.864-0.757-1.189-1.241c-0.367-0.546-0.506-1.239-0.619-1.917c-0.413-2.481-0.651-5.073-0.515-7.632
					c0.124-2.335,1.654-3.218,3.165-4.728c1.767-1.766,2.208-4.208,3.917-5.991c0.964-1.006,2.35-1.658,3.582-1.297
					c0.997,0.292,1.715,1.17,2.379,2.009C442.112,459.93,442.545,460.476,442.977,461.023z"/>
				<path style="fill:#145566;" d="M419.607,563.055c-2.332-5.647-3.326-11.688-3.235-18.92c0.225-17.869,3.029-35.866,8.278-53.131
					c7.733-0.363,15.437,0.958,22.522,3.862c-1.28,14.688-1.486,29.415-0.617,43.998c0.426,7.145,1.911,13.328,7.724,17.14
					c12.942,8.488,26.53,15.877,40.611,22.085c3.113,1.373,6.318,2.732,8.789,5.161c4.531,4.455,5.813,12.089,4.002,18.76
					c-1.811,6.671-6.351,12.359-11.724,16.282c-3.851,2.812-8.348,4.859-12.836,4.615c-4.642-0.252-8.732-2.885-12.53-5.586
					c-16.945-12.049-32.13-26.88-44.934-43.887C423.068,569.999,421.073,566.605,419.607,563.055z"/>
			</g>
		</g>
		<g>
			<path style="fill:#E5D1BD;" d="M608.178,486.192c-0.234,0.143-0.456,0.302-0.663,0.484c-1.929,1.698-1.31,4.188-2.545,6.109
				c-0.551,0.857-3.458,1.762-2.462,3.126c0.372,0.5,1.479,2.291,2.701,4.019c0.433,1.706,0.944,3.397,1.214,5.137
				c0.683,4.403-3.062,14.508,2.761,16.383c1.126,0.363,2.282,0.73,3.465,0.678c0.967-0.043,1.898-0.364,2.796-0.724
				c0.7-0.28,1.877-0.558,2.169-1.233c0.306-0.708-0.216-2.581-0.282-3.37c-0.189-2.255-0.377-4.511-0.566-6.767
				c-0.185-2.212-0.196-4.836,1.587-6.159c0.39-0.289,0.845-0.493,1.192-0.833c0.392-0.383,0.611-0.905,0.806-1.417
				c0.713-1.877,1.293-3.858,1.552-5.855c0.46-3.572-3.784-7.292-6.009-9.546c-0.554-0.561-1.146-1.124-1.889-1.389
				c-1.208-0.431-2.534,0.006-3.741,0.44C609.55,485.534,608.822,485.799,608.178,486.192z"/>
			<path style="fill:#145566;" d="M611.507,567.182c1.786-2.214,3.594-4.463,4.731-7.071c0.906-2.079,1.358-4.325,1.748-6.559
				c2.415-13.858,2.656-28.092,0.711-42.023c-6.523-1.114-13.266-0.92-19.715,0.566c-1.054,11.508-3.027,22.932-5.893,34.128
				c-0.586,2.29-1.221,4.598-2.396,6.649c-1.692,2.955-4.386,5.181-7.021,7.338c-10.219,8.365-20.438,16.731-30.658,25.096
				c-6.166,5.047-12.517,10.323-16.01,17.485c-9.687,19.857,13.85,34.917,29.086,21.035
				C583.198,608.238,596.934,585.246,611.507,567.182z"/>
		</g>
		<g>
			<g>
				<g>
					<path style="fill:#145566;" d="M448.415,445.086c1.705-0.004,69.189-62.14,69.189-62.14l-0.264-116.051l-76.09,74.924
						L448.415,445.086z"/>
					<path style="fill:#FFD559;" d="M457.305,401.878c-1.305-23.233-6.617-81.164-23.56-104.251
						c-16.838,23.164-21.886,81.119-23.085,104.357c-0.423,8.199,0.027,16.144,1.238,23.472l10.089,61.068l0,0
						c5.271,6.806,19.136,6.775,24.376-0.056v0l9.811-61.113C457.351,418.022,457.765,410.075,457.305,401.878z"/>
					<path style="fill:#5E89A0;" d="M430.9,472.698c-3.684-0.119-7.582-0.374-11.386-1.052l2.428,14.697v0
						c5.271,6.806,19.136,6.775,24.376-0.055v0l2.449-15.257C443.059,472.725,436.804,472.889,430.9,472.698z"/>
					<polygon style="opacity:0.12;" points="479.294,304.358 491.88,406.518 477.509,419.589 474.694,308.888 					"/>
				</g>
				<g>
					<path style="fill:#145566;" d="M682.119,444.554c-1.705,0.004-69.472-61.824-69.472-61.824l-0.264-116.051l76.431,74.577
						L682.119,444.554z"/>
					<path style="fill:#FFD559;" d="M673.031,401.387c1.199-23.238,6.247-81.193,23.085-104.357
						c16.944,23.087,22.255,81.018,23.56,104.251c0.46,8.197,0.046,16.144-1.131,23.477l-9.811,61.113l0,0
						c-5.24,6.83-19.105,6.862-24.376,0.056v0l-10.089-61.068C673.059,417.531,672.608,409.586,673.031,401.387z"/>
					<path style="fill:#5E89A0;" d="M699.759,472.086c3.683-0.136,7.58-0.409,11.381-1.104l-2.361,14.708l0,0
						c-5.24,6.83-19.105,6.862-24.376,0.056l0,0l-2.519-15.245C687.6,472.168,693.856,472.304,699.759,472.086z"/>
					<polygon style="opacity:0.12;" points="650.598,303.968 638.478,406.185 652.909,419.189 655.219,308.477 					"/>
				</g>
				
					<rect x="533.471" y="453.722" transform="matrix(1 -0.0023 0.0023 1 -1.053 1.3031)" style="fill:#304956;" width="76.261" height="18.51"/>
				<polygon style="fill:#3ABABA;" points="616.92,489.158 525.386,489.366 530.881,470.844 611.342,470.661 				"/>
				<path style="fill:#3ABABA;" d="M658.654,213.773c-6.269-51.198-24.038-101.111-50.495-145.327
					c-10.075-16.838-26.669-37.555-41.051-48.342c-14.332,10.853-30.832,31.645-40.83,48.529
					c-26.255,44.336-43.797,94.33-49.833,145.556c-6.419,54.475,5.192,107.566,9.914,161.624c2.32,26.565,4.64,53.13,6.96,79.695
					l74.78-0.17l74.78-0.17c2.199-26.575,4.398-53.15,6.597-79.726C653.952,321.362,665.321,268.218,658.654,213.773z"/>
				<path style="fill:#304956;" d="M623.198,494.45l-103.05,0.234c-1.265,0.003-2.292-1.02-2.295-2.285l-0.005-1.96
					c-0.003-1.265,1.02-2.292,2.285-2.295l103.05-0.235c1.265-0.003,2.292,1.02,2.295,2.285l0.005,1.96
					C625.486,493.419,624.463,494.447,623.198,494.45z"/>
				<polygon style="opacity:0.15;" points="533.454,455.416 609.714,455.242 609.742,467.579 533.461,458.87 				"/>
				<polygon style="opacity:0.19;fill:#304956;" points="492.767,455.508 642.326,455.168 645.677,415.712 490.346,417.315 				"/>
				<g>
					<path style="fill:#EBB044;" d="M617.05,544.127c-0.633-4.36-1.748-8.62-3.49-12.656c-5.48-12.695-15.984-22.881-28.927-25.308
						c-0.233-0.055-0.464-0.117-0.698-0.168c-10.847-2.348-21.932-1.611-32.033,2.436c-2.12,0.754-4.174,1.712-6.123,2.939
						c-3.465,1.955-6.753,4.333-9.804,7.152c-3.302,3.052-6.232,6.629-8.21,10.838c-1.952,4.153-2.923,8.802-3.472,13.436
						c-1.903,16.079,0.892,31.97,5.101,46.586c2.073,7.2,4.505,14.161,6.975,20.965c1.235,3.404,2.599,6.752,3.714,10.127
						c0.421,1.274,2.996,7.502,2.46,8.284c0,0,3.619-5.261,12.384-14.792c4.108,14.193,8.287,26.906,15.48,42.15
						c0,0,9.219-22.342,14.562-40.367c4.492,7.046,9.863,19.445,13.388,29.016c-0.349-0.946,1.178-4.164,1.438-5.127
						c3.858-14.272,7.637-29.154,11.133-44.713C614.485,579.099,619.587,561.595,617.05,544.127z"/>
					<path style="fill:#FFD559;" d="M598.225,542.573c-0.37-2.475-1.013-4.892-2.012-7.18c-3.139-7.187-9.118-12.942-16.466-14.311
						c-0.132-0.031-0.263-0.066-0.396-0.095c-6.155-1.324-12.443-0.907-18.178,1.378c-1.204,0.426-2.37,0.967-3.478,1.66
						c-1.969,1.104-3.84,2.449-5.576,4.042c-1.881,1.726-3.552,3.751-4.685,6.134c-1.118,2.353-1.681,4.99-2.003,7.619
						c-1.12,9.141,0.438,18.198,2.81,26.549c1.171,4.122,2.549,8.112,3.95,12.016c0.701,1.955,1.477,3.879,2.11,5.819
						c0.239,0.733,1.706,4.318,1.398,4.768c0,0,2.08-3.028,7.11-8.507c2.343,8.164,4.734,15.493,8.861,24.303
						c0,0,5.287-12.902,8.34-23.276c2.156,3.389,4.676,8.948,6.631,13.905c0.341,0.866,1.633,0.783,1.888-0.129
						c0.002-0.006,0.003-0.011,0.005-0.017c2.192-8.225,4.332-16.781,6.304-25.704C596.836,562.494,599.709,552.509,598.225,542.573
						z"/>
				</g>
				<path style="fill:#1A3151;" d="M419.513,471.646c0,0,21.869,3.08,29.254-0.615l1.323-7.777c0,0-18.573,2.652-31.936,0.073
					L419.513,471.646z"/>
			</g>
			<g>
				
					<ellipse transform="matrix(0.7071 -0.7071 0.7071 0.7071 14.1031 466.8027)" style="fill:#AECCDC;" cx="570.532" cy="216.377" rx="54.739" ry="54.739"/>
				<path style="fill:#D1E7F5;" d="M534.625,174.59c9.005-6.564,20.09-10.448,32.086-10.475
					c30.232-0.069,54.795,24.383,54.864,54.614c0.039,17.005-7.681,32.217-19.824,42.285L534.625,174.59z"/>
				<g>
					<path style="fill:#145566;" d="M570.665,274.818c-32.224,0.073-58.5-26.083-58.574-58.308
						c-0.073-32.224,26.083-58.501,58.308-58.574c32.224-0.073,58.5,26.083,58.574,58.308
						C629.046,248.469,602.89,274.745,570.665,274.818z M570.416,165.34c-28.142,0.064-50.985,23.011-50.921,51.153
						c0.064,28.142,23.011,50.985,51.153,50.921c28.142-0.064,50.985-23.011,50.921-51.153
						C621.505,188.119,598.558,165.276,570.416,165.34z"/>
				</g>
			</g>
			<path style="fill:#1A3151;" d="M681.892,474.041c0,0,21.869,3.08,29.254-0.615l1.323-7.777c0,0-18.573,2.652-31.936,0.073
				L681.892,474.041z"/>
		</g>
	</g>
	<g>
		<g>
			<g>
				<path style="fill:#0C1721;" d="M271.967,1062.582c-0.567-0.462-1.296-0.741-1.737-1.325c-0.606-0.802-0.488-1.918-0.341-2.912
					c1.639-11.126,3.987-22.387,4.832-33.597c-4.099,0.704-10.695,0.493-14.024,3.105c-2.278,1.787-1.207,3.756-2.342,5.78
					c-1.123,2.003-3.458,2.925-4.74,4.808c-1.034,1.52-1.153,3.476-1.045,5.31c0.271,4.626,1.746,9.086,3.208,13.484
					c1.186,3.565,2.372,7.13,3.557,10.696c0.32,0.963,0.7,2.004,1.565,2.535c0.658,0.404,1.471,0.43,2.243,0.444
					c2.683,0.05,5.562,0.044,7.776-1.472C273.134,1067.922,274.046,1064.278,271.967,1062.582z"/>
				<path style="fill:#0C1721;" d="M189.434,1064.371c-0.494-0.875-0.23-1.965,0.046-2.932c2.832-9.891,6.252-19.816,8.592-29.856
					c-0.548-0.83-0.883-1.797-1.007-2.798c-4.082-0.071-9.474-0.668-12.667,1.215c-2.494,1.471-1.693,3.563-3.085,5.42
					c-1.377,1.837-3.814,2.442-5.334,4.139c-1.226,1.37-1.602,3.293-1.738,5.126c-0.343,4.621,0.53,9.237,1.398,13.789
					c0.704,3.691,1.408,7.382,2.113,11.072c0.19,0.997,0.43,2.079,1.217,2.72c0.599,0.487,1.402,0.62,2.165,0.736
					c2.653,0.404,5.507,0.778,7.902-0.432c2.395-1.21,3.781-4.702,1.944-6.658C190.48,1065.381,189.794,1065.008,189.434,1064.371z"
					/>
				<polygon style="fill:#9EA6AD;" points="186.114,811.152 178.448,840.097 186.947,922.581 176.96,1032.322 199.416,1034.156 
					228.552,929.179 251.537,814.321 				"/>
			</g>
			<path style="fill:#3ABABA;" d="M302.516,830.992c1.005,4.485,2.099,8.951,3.281,13.393c0.252,0.948,0.502,1.988,0.088,2.877
				c-0.35,0.752-1.101,1.223-1.825,1.627c-9.037,5.032-20.293,5.888-29.986,2.278c-4.777-1.779-9.149-4.564-14.004-6.118
				c-8.143-2.607-16.782-1.591-25.167-1.37c-8.315,0.219-15.492-2.108-23.444-2.999c-19.495-2.184-24.693-3.314-43.461,1.984
				c1.04-35.2-5.356-62.481,0.976-95.44c6.25-32.534,12.501-65.067,18.751-97.6c1.055-5.489,2.147-11.091,4.567-15.879
				c10.946-21.649,35.304-25.122,56.634-18.21c10.853,3.517,19.206,16.123,24.302,25.88c6.514,12.472,9.892,26.396,12.207,40.192
				c7.246,43.163,6.217,87.389,13.407,130.561C299.893,818.475,301.118,824.753,302.516,830.992z"/>
			<g>
				<g>
					<g>
						<path style="fill:#15273D;" d="M258.972,567.209c0.16,0.452,0.279,0.912,0.349,1.38c0.37,2.455-0.653,4.957-0.303,7.415
							c0.555,3.896,4.424,6.895,4.359,10.829c-0.053,3.218-2.736,5.788-3.503,8.913c-0.838,3.415,0.765,7.092-0.211,10.435
							c-0.848,2.904-3.498,6.714-5.706,8.757c0.684-0.633,5.589,0.549,7.02,0.003c2.193-0.837,2.558-1.553,3.525-3.496
							c0.96-1.929,0.883-4.021,2.177-5.939c1.588-2.353,4.223-3.808,5.53-6.39c1.784-3.523,0.533-7.822,1.408-11.672
							c1.326-5.828,7.429-10.417,6.624-16.339c-0.472-3.475-3.262-6.158-4.502-9.438c-0.941-2.491-0.952-5.222-1.439-7.84
							c-0.488-2.618-1.652-5.362-4.025-6.57c-1.318-0.671-2.85-0.781-4.231-1.313c-2.386-0.919-4.123-3.007-6.354-4.255
							c-3.192-1.786-9.843,0.542-12.368,3.06c-2.506,2.499-1.963,5.12-0.417,8.029C249.483,557.624,257.091,561.895,258.972,567.209
							z"/>
						<g>
							<path style="fill:#EACDB0;" d="M226.831,619.404c0.13,0.435,0.332,0.865,0.631,1.294c1.177,1.69,3.024,2.867,4.953,3.519
								c2.543,0.859,5.279,0.919,7.963,0.907c3.626-0.017,3.884-2.091,4.982-5.175c0.6-1.685,1.099-3.404,1.556-5.133
								c0.25-0.948,0.518-4.459,1.256-5.018c0.501-0.38,2.165,0.089,2.979-0.161c1.29-0.395,2.482-1.344,3.392-2.31
								c1.468-1.559,2.475-3.486,3.463-5.386c1.719-3.306,3.438-6.612,5.157-9.917c1.756-3.378,3.524-6.784,4.568-10.446
								c1.572-5.519,2.138-13.617-1.338-18.512c-3.171-4.465-8.57-6.826-13.622-8.449c-6.689-2.149-14.025-2.215-20.619,0.322
								c-2.663,1.024-5.282,2.508-7.18,4.864c-2.926,3.633-3.697,8.704-4.339,13.459c-0.593,4.39-1.185,8.779-1.778,13.169
								c-0.682,5.049-1.13,10.93,2.114,14.339c1.722,1.81,4.267,2.602,5.627,4.766c1.704,2.71,0.92,6.156,0.464,9.106
								C226.798,616.325,226.378,617.889,226.831,619.404z"/>
						</g>
					</g>
					<path style="fill:#15273D;" d="M216.318,541.338c-2.32,1.119-5.042,1.732-7.232,3.135c-4.269,2.737-5.974,8.066-7.032,13.025
						c-0.942,4.416-3.616,7.998-3.995,12.712c-0.255,3.166,0.482,6.553,2.669,8.856c2.723,2.869,7.595,4.162,8.326,8.05
						c0.793,4.223-4.21,8.426-2.369,12.308c1.016,2.142,3.643,2.917,5.362,4.549c1.918,1.821,2.569,4.557,3.486,7.037
						c0.917,2.481,2.502,5.09,5.092,5.628c0.84-3.935,1.54-7.046,0.522-10.976c-0.592-2.289-2.767-6.714-0.118-8.582
						c1.756-1.635,5.183-1.636,5.707-3.978c0.246-1.099-0.352-2.186-0.789-3.224c-1.694-4.018-1.047-8.833,1.292-12.514
						c2.339-3.68,6.225-6.245,10.431-7.397c4.929-1.349,4.406-2.589,6.525-6.675c1.95-3.76,4.385-4.274,8.242-5.059
						c3.463-0.705,4.649-1.325,6.398-4.119c1.279-2.044,2.842-4.486,2.038-7.182c-0.639-2.143-2.183-3.877-3.684-5.535
						c-3.134-3.463-6.693-7.153-11.334-7.674c-2.578-0.289-5.193,0.461-7.766,0.132c-1.716-0.219-3.335-0.909-5.025-1.282
						c-2.88-0.635-6.101-0.323-8.768,0.967c-2.691,1.301-2.963,3.135-4.737,5.36C218.69,539.993,217.562,540.738,216.318,541.338z"
						/>
					<path style="fill:#15273D;" d="M229.595,526.986c0.957-2.672,1.339-6.315-1.119-7.734c-1.347-0.778-3.066-0.519-4.508-1.103
						c-3.072-1.243-3.441-5.312-4.596-8.418c-0.173-0.465-0.392-0.944-0.801-1.226c-0.584-0.402-1.362-0.286-2.07-0.33
						c-3.249-0.203-5.081-3.788-7.862-5.48c-3.442-2.095-8.533-0.646-10.355,2.948c-0.749,1.477-0.981,3.17-1.703,4.66
						c-2.926,6.037-12.745,7.012-14.206,13.56c-0.987,4.425,2.579,9.503,0.118,13.31c-1.574,2.435-5.3,3.602-5.436,6.497
						c-0.088,1.863,1.617,3.459,3.455,3.775c1.838,0.315,3.71-0.378,5.315-1.327c2.548-1.507,4.656-3.656,7.122-5.295
						c2.465-1.639,5.556-2.766,8.377-1.868c2.732,0.869,4.859,3.518,7.726,3.568c2.293,0.041,4.312-1.636,6.601-1.789
						c2.141-0.143,4.117,1.055,6.199,1.573c2.082,0.518,4.872-0.097,5.32-2.195c0.109-0.508,0.064-1.063,0.314-1.518
						c0.702-1.276,3.01-0.766,3.704-2.047c-0.784-1.899-2.447-1.58-2.824-3.939C228.074,530.78,228.993,528.664,229.595,526.986z"/>
				</g>
			</g>
			<g>
				<polygon style="fill:#9EA6AD;" points="233.1,810.59 238.38,857.761 245.853,944.805 253.257,1031.03 276.895,1029.822 
					286.514,935.719 289.342,855.895 280.316,804.985 				"/>
			</g>
		</g>
		<g>
			<path style="fill:#E5D1BD;" d="M375.52,700.998c-0.123-0.244-0.264-0.479-0.428-0.7c-1.534-2.061-4.067-1.648-5.88-3.036
				c-0.809-0.619-1.473-3.591-2.914-2.709c-0.529,0.33-2.405,1.286-4.226,2.364c-1.736,0.292-3.463,0.662-5.219,0.789
				c-4.444,0.32-14.208-4.239-16.555,1.411c-0.454,1.093-0.914,2.215-0.959,3.398c-0.037,0.967,0.208,1.921,0.493,2.846
				c0.222,0.72,0.403,1.917,1.051,2.262c0.681,0.363,2.59-0.005,3.382-0.006c2.263-0.003,4.527-0.007,6.79-0.01
				c2.22-0.003,4.836,0.2,6.008,2.086c0.256,0.412,0.422,0.883,0.732,1.256c0.35,0.422,0.852,0.683,1.346,0.919
				c1.812,0.864,3.739,1.605,5.709,2.026c3.522,0.75,7.577-3.175,10.006-5.208c0.605-0.506,1.214-1.05,1.539-1.769
				c0.529-1.168,0.202-2.526-0.133-3.764C376.064,702.419,375.859,701.672,375.52,700.998z"/>
			<path style="fill:#3ABABA;" d="M294.529,697.686c2.061,1.962,4.154,3.947,6.66,5.294c1.998,1.074,4.199,1.708,6.394,2.279
				c13.613,3.541,27.78,4.947,41.824,4.148c1.644-6.41,2.003-13.146,1.05-19.695c-11.384-1.993-22.608-4.894-33.531-8.667
				c-2.234-0.772-4.483-1.594-6.431-2.932c-2.807-1.928-4.804-4.796-6.738-7.599c-7.501-10.87-15.001-21.739-22.502-32.609
				c-4.525-6.558-9.264-13.32-16.116-17.388c-18.997-11.28-35.934,10.945-23.346,27.267
				C255.929,666.112,277.719,681.683,294.529,697.686z"/>
		</g>
		<g>
			<g>
				<path id="XMLID_38_" style="fill:#EDF3F7;" d="M464.615,770.877c-1.947,0-3.877,0.071-5.792,0.199
					c-6.469-37.078-39.219-65.289-78.652-65.289c-18.034,0-34.668,5.902-48.033,15.852c-14.444-25.135-41.805-42.097-73.185-42.097
					c-46.432,0-84.073,37.132-84.073,82.936c0,2.903,0.152,5.77,0.447,8.596c-1.907-0.128-3.829-0.198-5.768-0.198
					c-46.432,0-84.073,37.132-84.073,82.936s37.641,82.936,84.073,82.936h295.055c46.432,0,110.549-31.57,110.549-77.375
					C575.164,813.57,511.047,770.877,464.615,770.877z"/>
				<path style="fill:#F4F7F9;" d="M293.071,697.927c-7.787-2.454-16.085-3.781-24.697-3.781c-44.806,0-81.128,35.831-81.128,80.031
					c0,2.801,0.147,5.568,0.432,8.295c-1.84-0.123-3.695-0.191-5.566-0.191c-44.806,0-81.128,35.831-81.128,80.031
					c0,14.517,3.923,28.126,10.775,39.862c-3.095-36.109,2.444-105.05,90.18-103.363
					C201.042,775.235,205.279,701.326,293.071,697.927z"/>
				<path style="fill:#EBECED;" d="M210.213,936.75h254.401c46.432,0,110.549-31.57,110.549-77.375
					c0-9.782-1.729-19.162-4.882-27.875C515.001,938.903,301.561,923.834,210.213,936.75z"/>
			</g>
		</g>
		<g>
			<path style="fill:#E5D1BD;" d="M277.752,800.314c0.073-0.319,0.123-0.643,0.14-0.973c0.16-3.073-2.491-4.627-3.103-7.291
				c-0.273-1.188,1.384-4.437-0.617-4.724c-0.739-0.1-3.2-0.651-5.703-1.049c-1.824-1.057-3.699-2.034-5.415-3.259
				c-4.343-3.099-9.864-14.762-16.344-11.344c-1.253,0.661-2.535,1.344-3.48,2.4c-0.772,0.863-1.276,1.93-1.719,3.001
				c-0.345,0.834-1.093,2.075-0.759,2.889c0.351,0.855,2.391,1.974,3.123,2.578c2.09,1.726,4.18,3.452,6.269,5.177
				c2.05,1.693,4.306,3.878,3.947,6.512c-0.079,0.576-0.285,1.136-0.285,1.718c0.001,0.656,0.264,1.281,0.54,1.876
				c1.011,2.181,2.222,4.336,3.717,6.229c2.675,3.383,9.412,2.86,13.205,2.841c0.944-0.005,1.922-0.041,2.77-0.456
				c1.38-0.674,2.116-2.176,2.753-3.573C277.168,802.04,277.55,801.194,277.752,800.314z"/>
			<path style="fill:#3ABABA;" d="M201.508,737.168c0.402,3.383,0.816,6.813,2.098,9.969c1.022,2.516,2.568,4.782,4.156,6.986
				c9.849,13.664,21.84,25.781,35.4,35.772c6.412-4.655,11.889-10.593,16.012-17.36c-8.975-10.533-17.11-21.781-24.301-33.604
				c-1.471-2.418-2.917-4.894-3.691-7.616c-1.115-3.922-0.767-8.092-0.41-12.154c1.386-15.753,2.771-31.506,4.157-47.259
				c0.836-9.504,1.631-19.359-1.58-28.344c-8.903-24.913-41.497-17.354-42.356,7.312C190.03,678.567,198.23,709.571,201.508,737.168
				z"/>
		</g>
	</g>
	<g>
		<g>
			<path style="fill:#E5D1BD;" d="M728.133,553.018c0.348-0.009,0.696,0.008,1.043,0.059c3.235,0.481,4.295,3.571,6.942,4.77
				c1.18,0.535,4.914-0.506,4.792,1.639c-0.052,0.791,0.003,3.471-0.11,6.162c0.717,2.123,1.339,4.283,2.253,6.329
				c2.313,5.178,13.299,13.389,8.372,19.419c-0.953,1.166-1.935,2.358-3.234,3.119c-1.063,0.623-2.28,0.923-3.489,1.159
				c-0.942,0.184-2.393,0.701-3.17,0.181c-0.816-0.545-1.552-2.908-2.027-3.797c-1.357-2.541-2.715-5.082-4.072-7.623
				c-1.331-2.492-3.132-5.304-5.952-5.485c-0.617-0.04-1.244,0.057-1.85-0.066c-0.683-0.139-1.279-0.545-1.841-0.958
				c-2.059-1.513-4.048-3.229-5.705-5.186c-2.96-3.5-0.995-10.409-0.175-14.356c0.204-0.983,0.448-1.993,1.059-2.79
				c0.993-1.296,2.713-1.746,4.303-2.115C726.212,553.262,727.173,553.042,728.133,553.018z"/>
			<path style="fill:#9EA6AD;" d="M777.844,645.762c-3.44-1.132-6.926-2.286-9.944-4.288c-2.406-1.596-4.441-3.683-6.401-5.802
				c-12.159-13.141-22.254-28.188-29.804-44.422c6.202-5.698,13.543-10.152,21.461-13.021c9.081,11.571,19.085,22.417,29.886,32.402
				c2.209,2.042,4.484,4.071,7.156,5.451c3.851,1.989,8.268,2.505,12.576,2.989c16.704,1.878,33.407,3.755,50.111,5.633
				c10.078,1.133,20.512,2.383,29.196,7.622c24.077,14.527,9.331,46.891-16.548,42.585
				C836.475,670.075,805.904,654.996,777.844,645.762z"/>
		</g>
		<g>
			<g>
				<g>
					<path style="fill:#E5D1BD;" d="M1060.306,1026.58c-1.824,2.773-4.273,4.945-6.4,7.431c-9.61-6.074-18.483-12.332-26.666-20.45
						c6.408-1.574,6.998-7.372,15.24-2.289C1045.148,1012.919,1055.772,1024.332,1060.306,1026.58z"/>
					<path style="fill:#0C1721;" d="M1048.211,1031.214c-1.481,1.461-1.434,2.974-1.204,4.809c0.133,1.066,0.659,2.098,0.531,3.178
						c-0.129,1.08-0.588,1.905-1.151,2.899c-2.966,5.234-11.133,16.348,1.282,16.132c11.275-0.196,18.553-16.752,22.448-26.534
						c0.256-0.643,0.584-1.282,0.444-1.986c-0.141-0.703-0.554-1.404-1.061-2.019c-2.818-3.424-6.256-7.813-10.757-4.554
						c-1.92,1.39-1.901,3.935-3.944,5.399C1053.123,1029.737,1049.692,1029.752,1048.211,1031.214z"/>
				</g>
				<path style="fill:#145566;" d="M990.644,846.735c4.132,21.953-26.785,47.467-18.902,64.805
					c16.49,36.267,46.872,65.576,72.142,92.795c1.806,1.945,7.501,6.089,10.033,8.52c-4.426,7.549-9.944,13.144-16.052,19.804
					c-34.957-23.061-93.443-59.413-110.971-79.941c-23.792-27.864-32.394-82.781-45.551-120.177
					c-2.179-6.194-5.427-15.11-1.932-21.424c2.681-4.843,6.998-7.348,12.596-9.459c14.979-5.648,35.091-16.353,50.793-8.396
					C959.963,801.959,987.469,829.867,990.644,846.735z"/>
			</g>
			<g>
				<g>
					<path style="fill:#E5D1BD;" d="M834.829,1044.391c-3.354,0.691-6.73,0.354-10.088,0.72c-2.694-11.695-4.82-23.16-4.966-35.33
						c5.894,3.863,10.36,0.234,12.626,10.178C833.134,1023.178,832.964,1039.358,834.829,1044.391z"/>
					<path style="fill:#0C1721;" d="M822.616,1038.869c-2.099,0.002-3.146,1.224-4.305,2.661c-0.673,0.835-1,2.019-1.787,2.754
						c-0.787,0.735-1.729,0.96-2.848,1.237c-5.892,1.46-19.646,3.548-10.672,12.285c8.15,7.935,25.066,1.438,34.856-2.665
						c0.644-0.27,1.354-0.496,1.776-1.09c0.422-0.593,0.607-1.407,0.701-2.194c0.521-4.381,1.232-10.183-4.278-11.113
						c-2.35-0.397-4.32,1.422-6.837,0.974C827.159,1041.351,824.715,1038.867,822.616,1038.869z"/>
				</g>
				<path style="fill:#145566;" d="M922.473,868.38c-16.126,16.101-62.278,27.921-69.787,46.455
					c-3.012,7.434-12.924,62.418-14.433,101.13c-0.108,2.767,1.158,9.979,1.188,13.636c-8.6,2.466-16.333,1.949-25.603,2.6
					c-6.772-44.607-13.792-122.725-13.792-122.725c9.172-39.012,53.446-83.749,78.014-118.896
					c4.069-5.822,8.828-13.794,16.132-14.774c5.601-0.751,10.024,1.228,15.06,4.503c13.475,8.763,54.215,22.752,57.201,40.211
					C969.715,839.603,934.863,856.009,922.473,868.38z"/>
			</g>
			<path style="fill:#9EA6AD;" d="M915.542,626.394c14.039,12.33,35.178,23.607,43.611,40.765
				c20.399,41.506,32.775,86.073,39.216,131.612c1.884,13.319,3.768,26.638,5.652,39.956c1.854,13.104,1.393,16.145-9.338,17.109
				c-19.885,1.785-60.975-2.7-80.221-9.914c-9.158-3.433-17.972-8.476-27.373-10.618c-13.672-3.115-26.375,3.144-39.601,2.228
				c1.376-13.996,4.5-27.255,4.808-41.647c0.309-14.405-0.603-28.814-1.865-43.12c-2.205-25.001-3.356-50.121-5.414-75.064
				c-1.474-17.865-5.189-31.853,6.998-46.946c6.634-8.216,18.797-22.485,29.796-22.292
				C893.485,608.667,907.256,619.117,915.542,626.394z"/>
			<g>
				<path style="fill:#E5D1BD;" d="M850.758,602.994c4.065,3.841,9.18,6.344,13.804,9.491c4.498,3.062,7.041,6.451,9.753,11.015
					c1.959,3.296,4.326,5.534,8.802,4.422c8.441-2.097,3.489-7.768,3.36-13.3c-0.147-6.323,2.518-12.445,3.625-18.591
					c3.199-17.757-10.665-44.683-31.63-43.14C835.549,554.579,838.421,591.337,850.758,602.994z"/>
			</g>
			<path style="fill:#15273D;" d="M878.048,572.402c2.297,1.482,3.563,4.69,2.288,7.108c-0.682,1.295-1.944,2.191-2.726,3.428
				c-2.292,3.628,0.375,8.452,3.734,11.123s7.573,4.517,9.838,8.163c11.427-9.258,20.172-22.674,20.97-37.359
				c0.576-10.599-3.642-21.641-11.534-28.818c-9.263-8.425-18.631-7.961-30.687-8.989c-4.963-0.423-10.068-0.833-14.833,0.614
				c-4.34,1.318-8.11,4.096-12.407,5.547c-7.116,2.403-16.154,1.531-20.738,7.481c-2.652,3.442-2.813,8.332-1.346,12.422
				c1.467,4.089,4.343,7.513,7.393,10.608c4.105,4.166,8.631,7.916,13.487,11.175c-2.306-1.548,5.685-10.458,7.505-10.849
				c4.3-0.924,11.111,3.961,15.517,5.013C868.751,570.081,874.293,569.98,878.048,572.402z"/>
		</g>
		<g>
			<g>
				<path id="XMLID_37_" style="fill:#EDF3F7;" d="M872.554,706.356c-1.384,0-2.757,0.05-4.117,0.142
					c-4.599-26.36-27.882-46.416-55.916-46.416c-12.821,0-24.647,4.196-34.148,11.27c-10.269-17.869-29.721-29.928-52.03-29.928
					c-33.01,0-59.77,26.398-59.77,58.962c0,2.064,0.108,4.102,0.318,6.111c-1.355-0.091-2.722-0.141-4.101-0.141
					c-33.01,0-59.77,26.398-59.77,58.962c0,32.564,26.76,58.962,59.77,58.962h209.764c33.01,0,78.593-22.445,78.593-55.008
					C951.147,736.708,905.564,706.356,872.554,706.356z"/>
				<path style="fill:#F4F7F9;" d="M750.598,654.493c-5.536-1.745-11.435-2.688-17.558-2.688c-31.854,0-57.676,25.474-57.676,56.897
					c0,1.991,0.104,3.958,0.307,5.897c-1.308-0.087-2.627-0.136-3.957-0.136c-31.854,0-57.677,25.474-57.677,56.897
					c0,10.32,2.789,19.996,7.66,28.339c-2.201-25.671,1.737-74.683,64.112-73.484C685.172,709.454,688.184,656.91,750.598,654.493z"
					/>
				<path style="fill:#DBDCDD;" d="M691.692,824.28h180.862c33.01,0,78.593-22.445,78.593-55.008c0-6.954-1.229-13.623-3.471-19.818
					C908.375,825.811,756.634,815.098,691.692,824.28z"/>
			</g>
		</g>
		<g>
			<path style="fill:#E5D1BD;" d="M770.39,758.081c0.093-0.336,0.211-0.664,0.362-0.98c1.406-2.953,4.671-3.063,6.592-5.243
				c0.857-0.972,0.953-4.847,2.969-4.103c0.742,0.281,3.32,1.012,5.861,1.907c2.24-0.064,4.487-0.028,6.711-0.304
				c5.628-0.698,16.693-8.802,21.018-2.327c0.837,1.252,1.689,2.54,2.037,4.005c0.285,1.198,0.215,2.45,0.088,3.675
				c-0.099,0.954-0.03,2.493-0.754,3.084c-0.76,0.621-3.234,0.634-4.224,0.828c-2.827,0.555-5.654,1.11-8.48,1.665
				c-2.773,0.544-5.988,1.445-6.986,4.088c-0.218,0.578-0.309,1.206-0.604,1.75c-0.333,0.613-0.895,1.063-1.454,1.48
				c-2.049,1.526-4.272,2.927-6.628,3.94c-4.212,1.807-10.245-2.092-13.779-4.031c-0.88-0.483-1.775-1.012-2.359-1.828
				c-0.949-1.328-0.876-3.105-0.764-4.733C770.062,759.989,770.133,759.006,770.39,758.081z"/>
			<path style="fill:#9EA6AD;" d="M873.618,737.665c-2.088,2.958-4.212,5.955-7.008,8.255c-2.23,1.834-4.821,3.169-7.421,4.425
				c-16.123,7.784-33.464,13.038-51.196,15.511c-3.635-7.597-5.748-15.92-6.176-24.331c13.721-5.3,27.018-11.695,39.725-19.104
				c2.599-1.515,5.204-3.097,7.305-5.249c3.028-3.101,4.814-7.174,6.536-11.152c6.68-15.424,13.361-30.849,20.041-46.273
				c4.031-9.306,8.277-18.919,15.827-25.691c20.933-18.776,47.57,4.79,35.884,28.278
				C914.014,688.707,890.654,713.532,873.618,737.665z"/>
		</g>
	</g>
</g>
</svg>
